<svg xmlns="http://www.w3.org/2000/svg" width="24" height="24" viewBox="0 0 24 24" fill="none" stroke="currentColor" stroke-width="2" stroke-linecap="round" stroke-linejoin="round">
  <path d="M7 16.3c2.2 0 4-1.83 4-4.05 0-1.16-.57-2.26-1.71-3.19S7.29 6.75 7 5.3c-.29 1.45-1.14 2.84-2.29 3.76S3 11.1 3 12.25c0 2.22 1.8 4.05 4 4.05z"/>
  <path d="M12.56 6.6A10.97 10.97 0 0 0 14 3.02c.5 2.5 2.04 4.6 4.14 5.93c2.1 1.33 3.86 3.17 3.86 5.25a6.59 6.59 0 0 1-1.71 4.7"/>
  <path d="M16.85 14.15c1.26.26 2.42.43 3.4.43A4.79 4.79 0 0 0 24 10.85c0-1.33-.94-2.48-2.29-3.12S19.04 6.07 18.5 4.5c-.54 1.57-1.76 2.87-3.11 3.51S13 9.52 13 10.85a4.79 4.79 0 0 0 3.85 3.3z"/>
</svg>